<svg xmlns="http://www.w3.org/2000/svg" viewBox="0 0 64 64" role="img" aria-label="GameTagger">
  <rect width="64" height="64" rx="14" fill="#107C10"/>
  <path d="M20 24h24a12 12 0 0 1 11.84 14.18l-1.6 8.6A6 6 0 0 1 44.34 51c-2 0-3.86-1-4.96-2.66L37 45H27l-2.38 3.34A6 6 0 0 1 19.66 51a6 6 0 0 1-5.9-4.22l-1.6-8.6A12 12 0 0 1 20 24z" fill="#ffffff"/>
  <rect x="18.5" y="33" width="10" height="3.2" rx="1.6" fill="#107C10"/>
  <rect x="22" y="29.5" width="3.2" height="10" rx="1.6" fill="#107C10"/>
  <circle cx="40" cy="33" r="2.4" fill="#107C10"/>
  <circle cx="44.5" cy="37.5" r="2.4" fill="#107C10"/>
</svg>
